<?xml version="1.0" encoding="UTF-8" standalone="no"?>
<svg width="250px" height="46px" viewBox="0 0 250 46" version="1.1" xmlns="http://www.w3.org/2000/svg" xmlns:xlink="http://www.w3.org/1999/xlink">
    <!-- Generator: Sketch 3.6.1 (26313) - http://www.bohemiancoding.com/sketch -->
    <title>Page 1</title>
    <desc>Created with Sketch.</desc>
    <defs>
        <path id="path-1" d="M0,0.357163512 L0,22.1633872 L14.4444656,22.1633872 L14.4444656,0.357163512 L0,0.357163512 L0,0.357163512 Z"></path>
        <path id="path-3" d="M0,45.3444236 L249.706584,45.3444236 L249.706584,0 L0,0 L0,45.3444236 Z"></path>
    </defs>
    <g id="Welcome" stroke="none" stroke-width="1" fill="none" fill-rule="evenodd">
        <g id="Desktop-HD-Copy" transform="translate(-97.000000, -40.000000)">
            <g id="Page-1" transform="translate(97.000000, 40.000000)">
                <path d="M94.9958969,15.8047713 L94.3103053,15.2096576 C102.458206,5.84316838 114.105153,0.47142153 126.264504,0.47142153 L126.264504,1.37862447 C114.368034,1.37862447 102.971565,6.63649448 94.9958969,15.8047713 L94.9958969,15.8047713 Z" id="Fill-1" fill="#FFE412"></path>
                <path d="M122.449571,2.47493921 C132.932395,2.47493921 142.163788,7.19248981 149.198616,15.4192577 L153.602242,15.4221165 C146.096517,6.64454686 133.658063,0.00014294164 122.449571,0.00014294164 L122.449571,2.47493921 Z" id="Fill-3" fill="#FEFEFE"></path>
                <g id="Group-7" transform="translate(0.000000, 11.514902)">
                    <mask id="mask-2" fill="white">
                        <use xlink:href="#path-1"></use>
                    </mask>
                    <g id="Clip-6"></g>
                    <path d="M7.08616412,8.08840037 C8.27652672,8.8145439 9.47833969,9.53115799 10.6892176,10.2372897 C11.9206107,11.04491 12.8542939,11.9430599 13.4902672,12.9322161 C14.1262405,13.9204193 14.4444656,14.9696109 14.4444656,16.079791 C14.4444656,16.9474468 14.2626908,17.7341023 13.8991412,18.440234 C13.3337786,19.5709023 12.4301527,20.4742935 11.1892176,21.149931 C9.94732824,21.826045 8.62003817,22.1633872 7.20687023,22.1633872 C5.4101145,22.1633872 3.81564885,21.5782794 2.42299618,20.4056815 C1.02986641,19.2340365 0.222137405,17.7679318 -0.000190839695,16.0092731 L2.75601145,15.4036771 C2.73597328,16.5810397 3.20019084,17.575437 4.14866412,18.3868691 C5.0971374,19.200207 6.18683206,19.6052083 7.41870229,19.6052083 C8.36765267,19.6052083 9.18874046,19.2664366 9.88673664,18.5888933 C10.5828244,17.9113499 10.9320611,17.1375591 10.9320611,16.2679975 C10.9320611,15.6009365 10.6844466,14.9929581 10.1892176,14.446921 C9.69446565,13.9008839 8.94303435,13.3148232 7.93349237,12.6863565 C6.98501908,12.1403194 6.04608779,11.5947588 5.11765267,11.0477688 L4.45209924,10.5955967 C3.48406489,9.97141824 2.68730916,9.33723383 2.06374046,8.69256703 C1.13482824,7.72675802 0.672041985,6.5898955 0.672041985,5.28007361 C0.672041985,3.95071635 1.2264313,2.74381243 2.33664122,1.65602655 C3.2235687,0.790753155 4.66727099,0.357163512 6.6648855,0.357163512 C7.27080153,0.357163512 8.0976145,0.536317035 9.14723282,0.89462408 C10.1958969,1.25293113 10.8624046,1.43160818 11.1453244,1.43160818 C11.7703244,1.43160818 12.1739504,1.0737776 12.3562023,0.357163512 L13.0217557,0.357163512 L13.7178435,7.29840957 L12.9301527,7.29840957 C12.5255725,5.69269848 11.8490458,4.38907072 10.9005725,3.38514393 C9.81040076,2.26162263 8.4769084,1.69890904 6.90152672,1.69890904 C5.77032443,1.69890904 4.96307252,1.8894979 4.4778626,2.27115208 C3.87194656,2.75334188 3.56946565,3.38609687 3.56946565,4.16798764 C3.56946565,4.91128417 3.82137405,5.51402142 4.32709924,5.97524645 C4.9730916,6.57750723 5.66917939,7.12878549 6.41774809,7.63051065 L7.08616412,8.08840037 Z" id="Fill-5" fill="#FEFEFE" mask="url(#mask-2)"></path>
                </g>
                <path d="M28.9474714,25.8444203 L28.9474714,25.6195255 C28.9474714,23.4792127 28.5820134,21.8444368 27.8506202,20.7147213 C26.7699905,19.8194302 25.4822996,19.3705935 23.9875477,19.3705935 C22.6416508,19.3705935 21.4374523,19.745577 20.373521,20.4941147 C19.5261927,21.6590891 19.1025286,23.3734359 19.1025286,25.6366785 C19.1025286,27.7665089 19.4856393,29.4232025 20.2518607,30.604377 C21.3520515,31.4696504 22.6001431,31.9027635 24.0004294,31.9027635 C25.4822996,31.9027635 26.7990935,31.4200973 27.9479485,30.4538118 C28.5309637,29.4884792 28.863979,28.1481631 28.9474714,26.432387 M32.0672233,26.432387 C31.8677958,28.5312467 31.0013836,30.2675112 29.4689408,31.6416568 C27.9369752,33.0148495 26.1130248,33.7023988 23.9980439,33.7023988 C21.7494752,33.7023988 19.8339218,32.9276551 18.2523378,31.3805501 C16.6702767,29.8320156 15.878292,27.9175506 15.878292,25.6366785 C15.878292,23.4225125 16.6750477,21.524724 18.2656966,19.94236 C19.8572996,18.360949 21.7699905,17.5709582 24.0037691,17.5709582 C26.2194179,17.5709582 28.1278149,18.3595196 29.7280057,19.9375953 C31.3272424,21.5161475 32.1278149,23.4106007 32.1278149,25.6195255 L32.1278149,25.7200611" id="Fill-8" fill="#FEFEFE"></path>
                <path d="M192.042223,25.8444203 L192.042223,25.6195255 C192.042223,23.4792127 191.676765,21.8444368 190.945372,20.7147213 C189.865697,19.8194302 188.577529,19.3705935 187.0823,19.3705935 C185.736403,19.3705935 184.532204,19.745577 183.469704,20.4941147 C182.621422,21.6590891 182.197281,23.3734359 182.197281,25.6366785 C182.197281,27.7665089 182.580391,29.4232025 183.34709,30.604377 C184.446803,31.4696504 185.695849,31.9027635 187.096135,31.9027635 C188.577529,31.9027635 189.894323,31.4200973 191.0427,30.4538118 C191.626193,29.4884792 191.959208,28.1481631 192.042223,26.432387 M195.162452,26.432387 C194.962071,28.5312467 194.096135,30.2675112 192.564647,31.6416568 C191.032204,33.0148495 189.208254,33.7023988 187.093273,33.7023988 C184.844704,33.7023988 182.928674,32.9276551 181.347567,31.3805501 C179.764552,29.8320156 178.973521,27.9175506 178.973521,25.6366785 C178.973521,23.4225125 179.7698,21.524724 181.361403,19.94236 C182.952052,18.360949 184.865219,17.5709582 187.098044,17.5709582 C189.314647,17.5709582 191.223044,18.3595196 192.823235,19.9375953 C194.422471,21.5161475 195.222567,23.4106007 195.222567,25.6195255 L195.222567,25.7200611" id="Fill-10" fill="#FEFEFE"></path>
                <path d="M44.8478053,24.3978033 L44.8478053,17.6723991 L45.9976145,17.5709106 L45.9976145,24.3978033 L45.9976145,24.9991111 L45.9976145,27.5977902 C45.9976145,29.3640724 45.4222328,30.8297006 44.2719466,31.9922927 C43.1216603,33.1558376 41.6426527,33.7371336 39.8354008,33.7371336 C38.0458015,33.7371336 36.6226145,33.1501199 35.5663168,31.9751397 C34.5596374,30.8511419 34.048187,29.386943 34.0319656,27.582543 L34.0319656,20.1243247 C34.0319656,19.272869 33.8974237,18.7239731 33.6283397,18.4766841 C33.3592557,18.2308245 32.7733779,18.0726357 31.8711832,18.0040237 L31.8711832,17.5709106 L36.3692748,17.5709106 L36.3692748,26.9173879 C36.3692748,30.2379223 37.6416985,31.8974747 40.1860687,31.8974747 C41.6545802,31.8974747 42.8153626,31.4057555 43.6693702,30.421364 C44.4546756,29.5222611 44.8478053,28.3849221 44.8478053,27.0103 L44.8478053,24.9991111 L44.8478053,24.3978033 Z" id="Fill-12" fill="#FEFEFE"></path>
                <path d="M58.7633588,21.7986002 L58.1903626,21.7986002 C58.0510496,21.1420216 57.9513359,20.7422614 57.8907443,20.5997963 C57.8296756,20.4578076 57.6951336,20.2896129 57.4866412,20.0942593 C57.197042,19.8155231 56.5205153,19.6301755 55.4584924,19.5396458 C55.4575382,19.5396458 54.4332061,19.5415517 54.326813,19.5425046 C54.2604962,19.5429811 54.365458,19.4190983 54.3549618,19.6535226 C54.3416031,19.9503647 54.3497137,20.6193316 54.3497137,20.6193316 L54.3497137,33.6027208 L49.6755725,33.6027208 L49.6755725,33.1681782 C50.6846374,33.0995662 51.3206107,32.9261304 51.5820611,32.6483471 C51.8425573,32.3700874 51.9742366,31.7282794 51.9742366,30.7214938 L51.9742366,20.6193316 L51.9742366,20.005159 L51.9742366,19.534881 L47.6908397,19.534881 L47.6908397,17.6904574 L54.7872137,17.6904574 L55.4031489,17.6904574 L58.6331107,17.6904574 L58.7633588,21.7986002 Z" id="Fill-14" fill="#FEFEFE"></path>
                <path d="M72.1337786,24.0190556 L72.1337786,23.4406184 L72.1337786,22.8259694 L72.1337786,17.6905527 L76.7473282,17.6905527 L76.7473282,18.1246188 C75.8680344,18.1937073 75.2931298,18.3599961 75.0207061,18.6206263 C74.7478053,18.8822095 74.611355,19.4396819 74.611355,20.2920906 L74.611355,22.8259694 L74.611355,23.4406184 L74.611355,30.99699 C74.611355,31.8479692 74.7478053,32.4044887 75.0207061,32.6646425 C75.2931298,32.9252727 75.8680344,33.0906086 76.7473282,33.159697 L76.7473282,33.6028161 L72.1337786,33.6028161 L72.1337786,26.0445386 L65.8155534,26.0445386 L65.2368321,26.0445386 L64.8093511,26.0445386 L64.8093511,33.6028161 L60.2177481,33.6028161 L60.2177481,33.1592206 C61.1748092,33.0553496 61.765458,32.8633314 61.9916031,32.5845952 C62.2182252,32.3063354 62.3312977,31.6797746 62.3312977,30.7049126 L62.3312977,20.2911376 C62.3312977,19.438729 62.1967557,18.881733 61.9267176,18.6206263 C61.6571565,18.3590431 61.0875,18.1937073 60.2177481,18.1246188 L60.2177481,17.6905527 L64.8093511,17.6905527 L64.8093511,24.0190556 L65.2368321,24.0190556" id="Fill-16" fill="#FEFEFE"></path>
                <path d="M102.564695,22.2183245 C102.564695,20.4391775 101.544656,19.4443037 97.6477099,19.4443037 L97.6477099,25.0714396 C98.826145,25.0361807 100.778435,24.8603624 101.367653,24.543985 C102.16584,24.0856188 102.564695,23.3108751 102.564695,22.2183245 L102.564695,22.2183245 Z M108.597615,33.6026732 L104.706393,33.6026732 L99.378626,26.7052626 L98.8829198,26.7052626 L98.0985687,26.7052626 L97.6644084,26.7052626 L97.6644084,33.6026732 L93.1376908,33.6026732 L93.1376908,33.1671776 C94.0604008,33.0799832 94.6353053,32.887965 94.8619275,32.5901699 C95.0880725,32.2938042 95.2016221,31.6643845 95.2016221,30.7038167 L95.2016221,17.6294213 L98.0985687,17.6294213 L98.7145038,17.6480037 C100.311832,17.6832627 101.51937,17.9367459 102.33521,18.4070239 C103.758874,19.2275089 104.471183,20.4744364 104.471183,22.1487595 C104.471183,23.0916979 104.231202,23.9250476 103.752195,24.6492853 C103.274141,25.37257 102.625763,25.9009776 101.807061,26.2321257 L106.508397,32.015068 C107.047996,32.6959467 107.744084,33.0799832 108.597615,33.1671776 L108.597615,33.6026732 Z" id="Fill-18" fill="#FEFEFE"></path>
                <path d="M227.133254,25.0715349 C228.312643,25.0367524 230.263979,24.8604577 230.854151,24.5440802 C231.652338,24.0857141 232.052147,23.3109704 232.052147,22.2184198 C232.052147,20.4387963 231.032109,19.4448755 227.133254,19.4448755 L227.133254,25.0715349 Z M238.084113,33.6027685 L234.191937,33.6027685 L228.866078,26.7053578 L228.368941,26.7053578 L227.58459,26.7053578 L227.149952,26.7053578 L227.149952,33.6027685 L222.624189,33.6027685 L222.624189,33.1667965 C223.546422,33.0800785 224.122758,32.8875838 224.347948,32.5902652 C224.574094,32.2938995 224.68812,31.6649563 224.68812,30.703912 L224.68812,17.6299931 L227.58459,17.6299931 L228.200048,17.648099 C229.797853,17.683358 231.005868,17.9363647 231.821708,18.4075956 C233.244418,19.2271277 233.958158,20.4750082 233.958158,22.1493313 C233.958158,23.0917932 233.718177,23.9256194 233.239647,24.6489041 C232.761116,25.3726653 232.112261,25.9010729 231.294513,26.2326975 L235.993941,32.0151633 C236.532586,32.6965185 237.230105,33.0800785 238.084113,33.1667965 L238.084113,33.6027685 Z" id="Fill-20" fill="#FEFEFE"></path>
                <path d="M109.663406,30.5886534 C109.663406,30.5367179 109.67438,30.4404706 109.695849,30.3008642 L109.695849,30.0135515 L109.695849,16.3997897 L115.85854,22.9188814 L121.853292,28.7771063 L121.829914,17.6324231 L126.069895,17.6324231 L126.069895,18.0774481 C125.132872,18.1827484 124.526002,18.4095492 124.248807,18.7573738 C124.05749,19.0032334 123.927242,19.3081756 123.857586,19.6741062 L123.857586,34.0726176 L121.382872,31.8079456 L111.691078,22.8140576 L111.691078,30.5886534 L111.691078,31.2061613 L111.691078,32.8604725 C112.007872,33.0005553 112.439647,33.0968027 112.986403,33.1496911 L112.986403,33.595669 L107.346613,33.595669 L107.346613,33.1496911 C108.375716,33.0439143 109.024094,32.8166371 109.290792,32.4664301 C109.485926,32.2215234 109.610448,31.8007985 109.663406,31.2061613" id="Fill-22" fill="#FEFEFE"></path>
                <path d="M149.158779,29.0606073 L147.930248,33.7114518 L135.541412,33.7114518 L135.541412,25.6867081 L135.541412,24.9934411 L135.541412,18.4705376 C135.541412,17.506158 135.385401,16.8662559 135.072901,16.5513078 C134.761355,16.2354068 134.120611,16.0510121 133.150668,15.9990766 L133.150668,15.4725749 L147.670706,15.4725749 L147.774714,19.4330113 L147.069084,19.4330113 C146.807634,18.11366 146.388263,17.2779278 145.813359,16.9258149 C145.35916,16.6628023 144.399237,16.5303431 142.935496,16.5303431 L139.21937,16.5303431 C138.818607,16.5303431 138.569561,16.5965727 138.47271,16.7276025 C138.37729,16.8600618 138.32958,17.1016331 138.32958,17.4527931 L138.32958,22.4848153 L138.800477,22.4848153 L139.452195,22.4848153 L146.182634,22.4848153 L146.182634,27.3248193 L145.553817,27.3248193 C145.326718,26.2203569 145.055725,25.5189899 144.742748,25.2202419 C144.375859,24.8700348 143.64208,24.6951696 142.542366,24.6951696 L138.343416,24.6951696 L138.32958,25.6867081 L138.32958,31.586386 L145.444561,31.586386 C146.193607,31.4463032 146.727004,31.2619085 147.039981,31.0341548 C147.511355,30.6834713 147.963645,30.0254633 148.400668,29.0606073 L149.158779,29.0606073 Z" id="Fill-24" fill="#FEFEFE"></path>
                <path d="M160.918511,21.5208169 L158.85458,24.9051985 L160.918511,21.5208169 Z M173.977672,43.892613 L169.668989,43.892613 L157.496279,27.0740996 L153.554008,33.7032564 L151.281107,33.7032564 L156.295897,25.3221116 L156.113168,25.0605284 L155.747233,24.5130619 L153.918989,21.8743592 C152.926145,20.4287428 152.342653,19.6182637 152.169466,19.4443513 C151.403721,18.5909897 150.557824,18.1464412 149.636546,18.1116588 L149.636546,17.6413808 L154.075477,17.6413808 L157.652767,23.151781 L158.645134,21.5208169 L159.011546,20.9047384 L161.048282,17.4603214 L163.345992,17.4603214 L161.283969,20.9047384 L158.775859,25.1005521 L171.287309,41.6712999 C171.758206,42.3517022 172.176145,42.8000624 172.54208,43.0173337 C172.906584,43.235558 173.386069,43.3789761 173.977672,43.4490175 L173.977672,43.892613 Z" id="Fill-26" fill="#FEFEFE"></path>
                <path d="M175.86188,22.2964659 C175.86188,20.3953421 174.390506,19.4443037 171.446326,19.4443037 L170.2698,19.4443037 L170.2698,22.1196947 L170.2698,22.6957495 L170.2698,25.2529755 L171.551288,25.2529755 C174.42438,25.2529755 175.86188,24.2676311 175.86188,22.2964659 M167.893368,22.1196947 L167.893368,20.2605005 C167.893368,19.4238154 167.773616,18.8734901 167.532681,18.6119069 L167.254532,18.4308475 L166.918177,18.2593175 C166.669132,18.1897526 166.307013,18.1287641 165.831823,18.0753993 L165.831823,17.6294213 L166.918177,17.6294213 L167.532681,17.6294213 L171.232586,17.6294213 C173.611403,17.6294213 175.322281,18.0396638 176.364265,18.8615783 C177.283635,19.5958218 177.74499,20.7498373 177.74499,22.3226719 C177.74499,23.9483948 177.186784,25.1710223 176.072281,25.9934132 C175.078006,26.7105037 173.745468,27.0683343 172.074189,27.0683343 L170.2698,27.0683343 L170.2698,33.6026732 L167.893368,33.6026732 L167.893368,22.6957495" id="Fill-28" fill="#FEFEFE"></path>
                <path d="M199.874332,25.2413972 C199.110496,24.7034602 198.530344,24.2350881 198.131489,23.8358044 C197.454485,23.1415845 197.117176,22.2991818 197.117176,21.3095492 C197.117176,20.3208695 197.517939,19.4270078 198.317557,18.627964 C198.942557,18.0028325 200.012691,17.6902668 201.52605,17.6902668 C202.117176,17.6902668 202.791317,17.8232025 203.547042,18.0885975 C204.303721,18.354469 204.734065,18.4864518 204.837595,18.4864518 C205.134351,18.4864518 205.339504,18.4226045 205.451145,18.293957 C205.564695,18.1653095 205.648187,17.9642383 205.699237,17.6902668 L206.194943,17.6902668 L206.74313,22.7894716 L206.168225,22.7894716 C205.872424,21.6144913 205.368607,20.6558294 204.655344,19.9111034 C203.837595,19.0820419 202.854294,18.6660818 201.70687,18.6660818 C200.906775,18.6660818 200.315172,18.8142646 199.932061,19.107295 C199.479771,19.4532137 199.254103,19.9206329 199.254103,20.508123 C199.254103,21.0270012 199.444943,21.4682144 199.828053,21.8312861 C200.315172,22.2982288 200.818989,22.7046596 201.340458,23.0501019 L201.833779,23.390303 C202.721183,23.9296694 203.609065,24.4599829 204.497424,24.9817199 C205.402481,25.5730218 206.086164,26.2296004 206.547519,26.9509792 C207.008397,27.673311 207.238836,28.4428135 207.238836,29.2599632 C207.238836,29.9036771 207.108588,30.4864025 206.847137,31.007663 C206.428721,31.8252892 205.763168,32.4866325 204.849046,32.99074 C203.934924,33.4948475 202.955439,33.7473778 201.911546,33.7473778 C200.58855,33.7473778 199.417748,33.3123587 198.400095,32.4423206 C197.380057,31.5722825 196.78416,30.4935496 196.610019,29.2051689 L198.648187,28.7877793 C198.62958,29.6582939 198.98645,30.3887257 199.717844,30.9795511 C200.396756,31.5713295 201.188263,31.8662658 202.094752,31.8662658 C202.791317,31.8662658 203.399618,31.615165 203.922519,31.1101045 C204.444466,30.605997 204.705916,30.0323245 204.705916,29.3881342 C204.705916,28.8840267 204.522233,28.4366193 204.157252,28.0454357 C203.791794,27.6537756 203.225954,27.2320978 202.459733,26.7799257 C201.780821,26.3630126 201.093321,25.9541995 200.396756,25.5534865" id="Fill-30" fill="#FEFEFE"></path>
                <path d="M220.876479,24.403378 L220.876479,17.7308623 L222.0177,17.6293737 L222.0177,24.403378 L222.0177,24.9999211 L222.0177,27.5781119 C222.0177,29.3305764 221.445658,30.7842928 220.304437,31.9378319 C219.162739,33.0918474 217.695181,33.6688552 215.902719,33.6688552 C214.12791,33.6688552 212.716174,33.0866062 211.66751,31.9202024 C210.668464,30.8057341 210.161784,29.3529706 210.145086,27.5623883 L210.145086,20.163729 C210.145086,19.3184674 210.011975,18.7743362 209.744323,18.5289531 C209.478101,18.2845229 208.896517,18.1277635 208.001479,18.059628 L208.001479,17.6293737 L212.464742,17.6293737 L212.464742,26.9024744 C212.464742,30.1968027 213.727147,31.8439669 216.250525,31.8439669 C217.708063,31.8439669 218.859303,31.3560594 219.707586,30.3783386 C220.486212,29.4868592 220.876479,28.3590497 220.876479,26.99491 L220.876479,24.9999211" id="Fill-32" fill="#FEFEFE"></path>
                <path d="M249.706489,29.5631424 L248.658779,33.606485 L238.083397,33.606485 L238.083397,26.5971034 L238.083397,25.987219 L238.083397,20.2528769 C238.083397,19.405233 237.950763,18.8429959 237.683588,18.5656891 C237.418321,18.2869529 236.871565,18.1254288 236.042366,18.0796875 L236.042366,17.6175095 L248.43645,17.6175095 L248.525191,21.0986149 L247.923569,21.0986149 C247.699332,19.9393582 247.341031,19.2051147 246.850095,18.8949313 C246.463168,18.6633659 245.644466,18.5471067 244.394466,18.5471067 L241.22271,18.5471067 C240.878721,18.5471067 240.668321,18.6057127 240.585782,18.721019 C240.504198,18.8368017 240.463168,19.0488318 240.463168,19.3575858 L240.463168,23.7816295 L240.86584,23.7816295 L241.422137,23.7816295 L247.165935,23.7816295 L247.165935,28.0370022 L246.628244,28.0370022 C246.435496,27.0654755 246.20458,26.449397 245.936927,26.1873373 C245.62395,25.8785834 244.998473,25.7242064 244.059065,25.7242064 L240.474141,25.7242064 L240.463168,26.5971034 L240.463168,31.7830261 L246.53521,31.7830261 C247.175,31.6596198 247.629676,31.4976193 247.899237,31.2979775 C248.299046,30.9897 248.68645,30.4107863 249.059542,29.5631424 L249.706489,29.5631424 Z" id="Fill-34" fill="#FEFEFE"></path>
                <path d="M92.2739981,29.5789613 L91.2262882,33.6513686 L80.6509065,33.6513686 L80.6509065,26.6238811 L80.6509065,26.0163791 L80.6509065,20.3039547 C80.6509065,19.4591696 80.5177958,18.8993149 80.2510973,18.6234375 C79.9858302,18.3456542 79.4385973,18.1846067 78.609876,18.1393418 L78.609876,17.6776403 L91.0034828,17.6776403 L91.0927004,21.1473104 L90.4910782,21.1473104 C90.2668416,19.991389 89.9090172,19.2600043 89.4171279,18.9507739 C89.0302004,18.7201613 88.2114981,18.6048551 86.9614981,18.6048551 L83.7902195,18.6048551 C83.4462309,18.6048551 83.2363073,18.6625082 83.153292,18.7778145 C83.0712309,18.8931207 83.0311546,19.1046744 83.0311546,19.4119989 L83.0311546,23.8193661 L83.4333492,23.8193661 L83.9896469,23.8193661 L89.7339218,23.8193661 L89.7339218,28.0585387 L89.1957538,28.0585387 C89.0034828,27.0903473 88.7716126,26.4761748 88.5039599,26.2155445 C88.1914599,25.90822 87.5655057,25.7547959 86.6260973,25.7547959 L83.0416508,25.7547959 L83.0311546,26.6238811 L83.0311546,31.7902685 L89.1036737,31.7902685 C89.7425095,31.6673387 90.196708,31.5058146 90.4662691,31.3061728 C90.8665553,30.9998012 91.2530057,30.4237464 91.6270515,29.5789613 L92.2739981,29.5789613 Z" id="Fill-36" fill="#FEFEFE"></path>
                <path d="M47.7383588,23.6267761 L47.725,24.28669 L44.7412214,24.28669 L44.35,24.28669 L44.35,25.9281365 C44.35,27.6348597 43.9597328,28.9422992 43.176813,29.8509316 C42.5995229,30.5203749 41.7130725,31.0383001 40.5217557,31.4094719 L40.3270992,30.7986347 C41.369084,30.4817807 42.1419847,30.0462852 42.6453244,29.4902422 C43.3705153,28.6921514 43.7340649,27.5057357 43.7340649,25.9281365 L43.7340649,24.28669 L42.1419847,24.28669 L42.1419847,23.6324938 L43.7340649,23.6324938 L43.7340649,19.4142859 L44.35,19.4142859 L44.35,23.6324938 L44.7412214,23.6324938 L47.7383588,23.6267761 Z" id="Fill-38" fill="#FEFEFE"></path>
                <path d="M223.693845,23.6267761 L223.680487,24.28669 L220.696708,24.28669 L220.305487,24.28669 L220.305487,25.9281365 C220.305487,27.6348597 219.913788,28.9422992 219.132777,29.8509316 C218.55501,30.5203749 217.668082,31.0383001 216.476765,31.4094719 L216.282109,30.7986347 C217.324571,30.4817807 218.097948,30.0462852 218.599857,29.4902422 C219.325525,28.6921514 219.689074,27.5057357 219.689074,25.9281365 L219.689074,24.28669 L218.097948,24.28669 L218.097948,23.6324938 L219.689074,23.6324938 L219.689074,19.4142859 L220.305487,19.4142859 L220.305487,23.6324938 L220.696708,23.6324938 L223.693845,23.6267761 Z" id="Fill-40" fill="#FEFEFE"></path>
                <mask id="mask-4" fill="white">
                    <use xlink:href="#path-3"></use>
                </mask>
                <g id="Clip-43"></g>
                <path d="M47.028626,20.5588197 L55.9642176,20.5588197 L55.9642176,19.9922943 L47.028626,19.9922943 L47.028626,20.5588197 Z" id="Fill-42" fill="#FEFEFE" mask="url(#mask-4)"></path>
                <path d="M54.7371183,23.6025237 L55.3034351,23.6025237 L55.3034351,16.7413249 L54.7371183,16.7413249 L54.7371183,23.6025237 Z" id="Fill-44" fill="#FEFEFE" mask="url(#mask-4)"></path>
                <path d="M66.5596374,23.2651814 L78.4002863,23.2651814 L78.4002863,22.699609 L66.5596374,22.699609 L66.5596374,23.2651814 Z" id="Fill-45" fill="#FEFEFE" mask="url(#mask-4)"></path>
                <path d="M79.5248092,26.8158517 L86.5186069,26.8158517 L86.5186069,26.2502793 L79.5248092,26.2502793 L79.5248092,26.8158517 Z" id="Fill-46" fill="#FEFEFE" mask="url(#mask-4)"></path>
                <path d="M107.61355,31.2289366 L114.608302,31.2289366 L114.608302,30.5680698 L107.61355,30.5680698 L107.61355,31.2289366 Z" id="Fill-47" fill="#FEFEFE" mask="url(#mask-4)"></path>
                <path d="M83.6087786,30.5013637 L84.1750954,30.5013637 L84.1750954,19.3457216 L83.6087786,19.3457216 L83.6087786,30.5013637 Z" id="Fill-48" fill="#FEFEFE" mask="url(#mask-4)"></path>
                <path d="M237.112118,26.8158517 L244.105916,26.8158517 L244.105916,26.2502793 L237.112118,26.2502793 L237.112118,26.8158517 Z" id="Fill-49" fill="#FEFEFE" mask="url(#mask-4)"></path>
                <path d="M241.195611,30.5013637 L241.761927,30.5013637 L241.761927,19.3457216 L241.195611,19.3457216 L241.195611,30.5013637 Z" id="Fill-50" fill="#FEFEFE" mask="url(#mask-4)"></path>
                <path d="M134.533397,25.9672549 L141.527195,25.9672549 L141.527195,25.4016824 L134.533397,25.4016824 L134.533397,25.9672549 Z" id="Fill-51" fill="#FEFEFE" mask="url(#mask-4)"></path>
                <path d="M138.919847,30.5013637 L139.486164,30.5013637 L139.486164,17.4574625 L138.919847,17.4574625 L138.919847,30.5013637 Z" id="Fill-52" fill="#FEFEFE" mask="url(#mask-4)"></path>
                <path d="M121.013645,33.3795889 L121.013645,24.6063075 L120.265076,24.6063075 L120.265076,31.7714955 L120.921565,32.3799504 L121.013645,33.3795889 Z" id="Fill-53" fill="#FEFEFE" mask="url(#mask-4)"></path>
                <path d="M120.921374,32.3800933 L120.264885,31.7716384 L111.637023,23.7750066 L111.177099,24.2695846 L121.014885,33.4178496 L120.921374,32.3800933 Z" id="Fill-54" fill="#FEFEFE" mask="url(#mask-4)"></path>
                <path d="M164.374237,18.0766381 L158.103244,28.4089363 L157.519752,28.0563469 L163.788836,17.7235722 L164.374237,18.0766381 Z" id="Fill-55" fill="#FEFEFE" mask="url(#mask-4)"></path>
                <path d="M156.371613,24.1958268 L150.273807,34.4590365 L149.686498,34.1121648 L155.783826,23.8480021 L156.371613,24.1958268 Z" id="Fill-56" fill="#FEFEFE" mask="url(#mask-4)"></path>
                <path d="M98.205105,32.1004518 L98.772376,32.1004518 L98.772376,27.6325726 L98.205105,26.9088114 L98.205105,32.1004518 Z" id="Fill-57" fill="#FEFEFE" mask="url(#mask-4)"></path>
                <path d="M98.7721374,26.7136008 L98.7721374,16.7415155 L98.2048664,16.7415155 L98.2048664,26.6492771 L98.5254771,26.3991292 L98.7721374,26.7136008 Z" id="Fill-58" fill="#FEFEFE" mask="url(#mask-4)"></path>
                <path id="Fill-59" fill="#FEFEFE" mask="url(#mask-4)" d="M98.205105,26.9213724 L98.205105,26.6493724"></path>
                <path d="M104.604485,34.1659585 L98.7719466,26.7134579 L98.7719466,27.6325726 L104.158397,34.5133067 L104.604485,34.1659585 Z" id="Fill-60" fill="#FEFEFE" mask="url(#mask-4)"></path>
                <path d="M98.5256679,26.3990816 L98.2050573,26.6492294 L98.2050573,26.9084303 L98.7723282,27.6326679 L98.7723282,26.7135532 L98.5256679,26.3990816 Z" id="Fill-61" fill="#FEFEFE" mask="url(#mask-4)"></path>
                <path d="M227.672805,32.4643336 L228.240076,32.4643336 L228.240076,27.9964544 L227.672805,27.2726932 L227.672805,32.4643336 Z" id="Fill-62" fill="#FEFEFE" mask="url(#mask-4)"></path>
                <path d="M228.240267,26.8606401 L228.240267,16.7356073 L227.672996,16.7356073 L227.672996,26.7963164 L227.99313,26.5461685 L228.240267,26.8606401 Z" id="Fill-63" fill="#FEFEFE" mask="url(#mask-4)"></path>
                <path id="Fill-64" fill="#FEFEFE" mask="url(#mask-4)" d="M227.672805,27.2852541 L227.672805,27.0132541"></path>
                <path d="M233.855964,34.3139031 L228.240506,27.0772443 L228.240506,27.9963591 L233.410353,34.6612513 L233.855964,34.3139031 Z" id="Fill-65" fill="#FEFEFE" mask="url(#mask-4)"></path>
                <path d="M227.993368,26.7629157 L227.672758,27.0130636 L227.672758,27.2722644 L228.240506,27.996502 L228.240506,27.0773873 L227.993368,26.7629157 Z" id="Fill-66" fill="#FEFEFE" mask="url(#mask-4)"></path>
                <path d="M65.3630725,29.4802839 L65.9293893,29.4802839 L65.9293893,17.6556749 L65.3630725,17.6556749 L65.3630725,29.4802839 Z" id="Fill-67" fill="#FEFEFE" mask="url(#mask-4)"></path>
                <path d="M10.0812023,15.0915402 L10.0921756,15.0748636 L9.52633588,14.5188206 L4.14942748,22.5216466 L4.07929389,22.4801935 C2.69666031,21.6320731 1.75916031,20.8625706 1.27156489,20.1693037 L0.599332061,20.6143287 C1.21383588,21.4433902 2.22385496,22.28484 3.63416031,23.1320074 L3.70906489,23.1772723 L2.55925573,24.8887602 L3.23101145,25.3395028 L4.39942748,23.5922795 C5.41374046,24.190252 6.43043893,24.7867951 7.44475191,25.3819088 C8.52585878,26.0732699 9.1971374,26.6864896 9.45667939,27.2191854 C9.55687023,27.4164449 9.60648855,27.6246632 9.60648855,27.841458 C9.60648855,28.1778473 9.48625954,28.5023249 9.24866412,28.8187024 C8.79160305,29.4104807 8.36221374,29.6777816 7.96288168,29.6191755 L7.81402672,30.388678 C8.53587786,30.5273314 9.22719466,30.1599714 9.8875,29.2923157 C10.2491412,28.8387142 10.4285305,28.354142 10.4285305,27.841458 C10.4285305,27.5060216 10.3498092,27.1805912 10.1880725,26.8642137 C9.92853053,26.3305649 9.37604962,25.7678513 8.53349237,25.1765494 C8.0735687,24.84016 7.21288168,24.3069877 5.9490458,23.575603 L4.84312977,22.9276009 L9.68902672,15.6785538 C10.0759542,16.0316197 10.464313,16.5195271 10.8512405,17.1494233 C11.3316794,17.9003434 11.5740458,18.4925983 11.5740458,18.9257114 L12.3860687,18.8075463 C11.873187,17.2775943 10.9833969,15.9868313 10.0812023,15.0915402" id="Fill-68" fill="#FEFEFE" mask="url(#mask-4)"></path>
                <path d="M203.821231,19.6736297 L203.829819,19.660765 L203.394227,19.2324165 L199.256823,25.3893895 L199.203387,25.3584188 C198.138979,24.704699 197.418559,24.1129206 197.043082,23.5797483 L196.525429,23.9223318 C196.998712,24.5603279 197.775429,25.2073771 198.859876,25.859191 L198.918082,25.8944499 L198.033063,27.2109424 L198.550716,27.5578141 L199.449094,26.2136863 C200.229628,26.6734819 201.011594,27.1323245 201.792128,27.5902142 C202.624666,28.1224336 203.141365,28.5946175 203.340315,29.0039071 C203.417128,29.1554252 203.455296,29.3159963 203.455296,29.483238 C203.455296,29.7419624 203.362739,29.9911573 203.18001,30.2346346 C202.82791,30.690142 202.498235,30.8959779 202.191937,30.8502366 L202.076956,31.4424915 C202.6323,31.5492212 203.164265,31.2671497 203.671422,30.5991358 C203.950525,30.2498817 204.087452,29.876804 204.087452,29.483238 C204.087452,29.2249901 204.027338,28.9743658 203.903292,28.731365 C203.703865,28.3201696 203.278292,27.8870564 202.630391,27.4329784 C202.276861,27.1737776 201.61417,26.7635351 200.641365,26.2008215 L199.790697,25.7024317 L203.519704,20.1248488 C203.81646,20.396438 204.115124,20.771898 204.413311,21.2564702 C204.783063,21.8339544 204.969609,22.2899382 204.969609,22.6229922 L205.593655,22.5324625 C205.199571,21.3550999 204.51541,20.362132 203.821231,19.6736297" id="Fill-69" fill="#FEFEFE" mask="url(#mask-4)"></path>
                <path d="M158.189408,21.5408287 L163.561546,21.5408287 L163.561546,20.7899086 L158.189408,20.7899086 L158.189408,21.5408287 Z" id="Fill-70" fill="#FEFEFE" mask="url(#mask-4)"></path>
                <path d="M166.706584,24.7474862 L172.078721,24.7474862 L172.078721,23.9970426 L166.706584,23.9970426 L166.706584,24.7474862 Z" id="Fill-71" fill="#FEFEFE" mask="url(#mask-4)"></path>
                <path d="M168.674141,34.6338065 L169.42605,34.6338065 L169.42605,16.7479955 L168.674141,16.7479955 L168.674141,34.6338065 Z" id="Fill-72" fill="#FEFEFE" mask="url(#mask-4)"></path>
                <path d="M32.5364027,25.388913 L32.5364027,26.0064209 L28.4281011,26.0064209 C28.2501431,28.1000394 27.9304866,29.4108143 27.470563,29.9382689 C26.6175095,30.8883544 25.287834,31.3619677 23.4791508,31.3619677 C23.1222805,31.3619677 22.759208,31.3362382 22.3875477,31.2819203 L22.4929866,30.6601242 C22.8298187,30.7163479 23.1671279,30.7444598 23.5015744,30.7444598 C25.1156011,30.7444598 26.2844943,30.3408879 27.0106393,29.5351735 C27.384208,29.1301722 27.648521,27.9556684 27.8097805,26.0064209 L22.7572996,26.0064209 L22.7572996,25.3898659 L27.8097805,25.3898659 C27.8441317,24.6508576 27.8441317,24.0967206 27.8097805,23.7288841 L28.3789599,23.6226308 C28.4281011,24.132456 28.4452767,24.7208991 28.4281011,25.3898659 L32.5364027,25.388913 Z" id="Fill-73" fill="#FEFEFE" mask="url(#mask-4)"></path>
                <path d="M195.722519,25.5103181 L195.722519,26.1283024 L191.614218,26.1283024 C191.43626,28.221921 191.116126,29.5322194 190.655725,30.0591976 C189.802672,31.009283 188.47395,31.4833728 186.663836,31.4833728 C186.30792,31.4833728 185.94437,31.4581197 185.57271,31.402849 L185.678149,30.7820058 C186.015935,30.837753 186.35229,30.8658649 186.688168,30.8658649 C188.30124,30.8658649 189.469656,30.4627695 190.195324,29.6561021 C190.569847,29.2520538 190.834637,28.0770735 190.995897,26.1283024 L185.942462,26.1283024 L185.942462,25.5107946 L190.995897,25.5107946 C191.029294,24.7722627 191.029294,24.2181257 190.995897,23.8498127 L191.565076,23.7435594 C191.614218,24.2533846 191.630916,24.8423042 191.614218,25.5107946 L195.722519,25.5103181 Z" id="Fill-74" fill="#FEFEFE" mask="url(#mask-4)"></path>
                <path d="M0.253005725,35.6790911 L0.253005725,36.4876643 L162.546422,36.4876643 L161.928578,35.6790911 L0.253005725,35.6790911 Z" id="Fill-75" fill="#FFE412" mask="url(#mask-4)"></path>
                <path d="M168.533922,35.680044 L169.152719,36.4886172 L249.41417,36.4886172 L249.41417,35.680044 L168.533922,35.680044 Z" id="Fill-76" fill="#FFE412" mask="url(#mask-4)"></path>
                <path d="M186.440506,43.8121845 L187.44146,38.3175079 L188.056918,38.3175079 L187.055964,43.8121845 L186.440506,43.8121845 Z" id="Fill-77" fill="#FEFEFE" mask="url(#mask-4)"></path>
                <path d="M190.911927,40.5462063 C190.82271,40.5157121 190.697233,40.4923649 190.489218,40.4923649 C189.562214,40.4923649 188.798378,41.4981976 188.798378,42.5426245 C188.798378,42.9604906 188.939122,43.3712096 189.406679,43.3712096 C189.925763,43.3712096 190.534065,42.6746073 190.704389,41.6759217 L190.911927,40.5462063 Z M190.519275,43.8124228 C190.519275,43.5880044 190.556011,43.2320797 190.600859,42.8447079 L190.585592,42.8447079 C190.192462,43.6265986 189.695802,43.8972348 189.191985,43.8972348 C188.554103,43.8972348 188.160496,43.3712096 188.160496,42.6593602 C188.160496,41.3509677 189.080344,39.9811103 190.637595,39.9811103 C190.979198,39.9811103 191.357061,40.0430517 191.601813,40.1202402 L191.23874,42.0785407 C191.119466,42.7284487 191.075095,43.3945567 191.089885,43.8124228 L190.519275,43.8124228 Z" id="Fill-78" fill="#FEFEFE" mask="url(#mask-4)"></path>
                <path d="M192.009637,43.8121845 L192.483874,41.1577583 C192.565458,40.7398922 192.617462,40.3758675 192.654676,40.0666371 L193.210973,40.0666371 L193.114122,40.8018336 L193.129389,40.8018336 C193.455725,40.2753319 193.937595,39.9813486 194.464313,39.9813486 C194.886546,39.9813486 195.368893,40.2367376 195.368893,41.0186284 C195.368893,41.188729 195.339313,41.4283945 195.302099,41.6218421 L194.901813,43.8121845 L194.293511,43.8121845 L194.686641,41.6451893 C194.708588,41.5060594 194.731011,41.3278588 194.731011,41.1653818 C194.731011,40.7937336 194.590267,40.5154738 194.167557,40.5154738 C193.72958,40.5154738 193.106966,41.0648462 192.943798,41.9934904 L192.617462,43.8121845 L192.009637,43.8121845 Z" id="Fill-79" fill="#FEFEFE" mask="url(#mask-4)"></path>
                <path d="M198.743082,40.6546037 C198.624284,40.5616916 198.416746,40.4921267 198.157204,40.4921267 C197.296994,40.4921267 196.629532,41.4517416 196.629532,42.4504272 C196.629532,42.8987875 196.77791,43.3709713 197.304151,43.3709713 C197.778865,43.3709713 198.350429,42.8063519 198.505964,41.9625197 L198.743082,40.6546037 Z M199.781727,38.3175079 L198.987834,42.6281513 C198.92104,43.0150467 198.86188,43.4481598 198.839456,43.8121845 L198.276002,43.8121845 L198.372376,43.068888 L198.357109,43.068888 C198.03125,43.6030133 197.57896,43.8974731 197.059876,43.8974731 C196.36999,43.8974731 195.991651,43.3014064 195.991651,42.5352392 C195.991651,41.2039761 196.941078,39.9813486 198.209208,39.9813486 C198.43917,39.9813486 198.691555,40.0351899 198.84709,40.1128549 L199.165792,38.3175079 L199.781727,38.3175079 Z" id="Fill-80" fill="#FEFEFE" mask="url(#mask-4)"></path>
                <path d="M199.892462,43.170043 C200.05563,43.2782022 200.367176,43.4016085 200.663454,43.4016085 C201.079008,43.4016085 201.346183,43.1233488 201.346183,42.7907712 C201.346183,42.4963114 201.219752,42.3104873 200.841412,42.094169 C200.426336,41.854027 200.196851,41.529073 200.196851,41.1421776 C200.196851,40.4841696 200.738359,39.9814915 201.501718,39.9814915 C201.82042,39.9814915 202.110019,40.0744036 202.243607,40.1668392 L202.072805,40.6547466 C201.946851,40.5775582 201.724523,40.4841696 201.457347,40.4841696 C201.079008,40.4841696 200.812309,40.7319351 200.812309,41.0492656 C200.812309,41.3199017 200.982634,41.4904788 201.308969,41.6758264 C201.709733,41.9159684 201.976431,42.2413989 201.976431,42.666412 C201.976431,43.4564028 201.368607,43.8971395 200.604294,43.8971395 C200.218798,43.889516 199.877672,43.7737332 199.714504,43.6417505 L199.892462,43.170043 Z" id="Fill-81" fill="#FEFEFE" mask="url(#mask-4)"></path>
                <path d="M205.083731,43.6651452 C204.898139,43.7656809 204.527433,43.8971872 204.045086,43.8971872 C203.118559,43.8971872 202.666269,43.2472792 202.666269,42.4501413 C202.666269,41.1655724 203.570849,39.9815392 204.860926,39.9815392 C205.194418,39.9815392 205.498807,40.0820748 205.609971,40.1516397 L205.432013,40.6547943 C205.291269,40.5847529 205.091365,40.5156644 204.824189,40.5156644 C203.889552,40.5156644 203.304151,41.4748028 203.304151,42.3653293 C203.304151,42.976643 203.607586,43.3711619 204.193941,43.3711619 C204.56417,43.3711619 204.838502,43.2549027 205.024094,43.1619907 L205.083731,43.6651452 Z" id="Fill-82" fill="#FEFEFE" mask="url(#mask-4)"></path>
                <path d="M208.429008,40.5462063 C208.340267,40.5157121 208.213836,40.4923649 208.005821,40.4923649 C207.079294,40.4923649 206.314981,41.4981976 206.314981,42.5426245 C206.314981,42.9604906 206.456202,43.3712096 206.923282,43.3712096 C207.442844,43.3712096 208.050668,42.6746073 208.221469,41.6759217 L208.429008,40.5462063 Z M208.035878,43.8124228 C208.035878,43.5880044 208.073092,43.2320797 208.117462,42.8447079 L208.102195,42.8447079 C207.709542,43.6265986 207.212405,43.8972348 206.708588,43.8972348 C206.070706,43.8972348 205.677099,43.3712096 205.677099,42.6593602 C205.677099,41.3509677 206.596947,39.9811103 208.154676,39.9811103 C208.495802,39.9811103 208.874141,40.0430517 209.118416,40.1202402 L208.755344,42.0785407 C208.636546,42.7284487 208.592176,43.3945567 208.606966,43.8124228 L208.035878,43.8124228 Z" id="Fill-83" fill="#FEFEFE" mask="url(#mask-4)"></path>
                <path d="M210.208349,43.1853854 C210.371994,43.3168918 210.601479,43.3945567 210.898235,43.3945567 C211.691651,43.3945567 212.351479,42.3649004 212.351479,41.3819384 C212.351479,40.9874195 212.188311,40.5152356 211.662071,40.5152356 C211.1802,40.5152356 210.579055,41.0879551 210.393941,42.1404821 L210.208349,43.1853854 Z M209.200239,45.3442807 L209.919704,41.397662 C210.000811,40.9488252 210.075239,40.4375706 210.119609,40.0587753 L210.683063,40.0587753 L210.586689,40.7706247 L210.601479,40.7706247 C210.920181,40.2755701 211.394895,39.9811103 211.892032,39.9811103 C212.663502,39.9811103 212.989361,40.6467419 212.989361,41.3357206 C212.989361,42.6593602 212.084781,43.8972348 210.891078,43.8972348 C210.512739,43.8972348 210.260353,43.8124228 210.119609,43.7271343 L210.104819,43.7271343 L209.815697,45.3442807 L209.200239,45.3442807 Z" id="Fill-84" fill="#FEFEFE" mask="url(#mask-4)"></path>
                <path d="M215.903244,40.9565917 C215.903244,40.6545084 215.680916,40.4844079 215.35458,40.4844079 C214.768702,40.4844079 214.331202,41.0804745 214.183302,41.6684411 C215.147042,41.6836882 215.903244,41.5445584 215.903244,40.9642153 L215.903244,40.9565917 Z M216.036832,43.6033945 C215.770134,43.7582479 215.332634,43.8973778 214.850286,43.8973778 C213.901336,43.8973778 213.485782,43.2160226 213.485782,42.3883905 C213.485782,41.2581986 214.286355,39.9812533 215.443321,39.9812533 C216.12605,39.9812533 216.496756,40.4072194 216.496756,40.9484917 C216.496756,41.9314537 215.436641,42.1868428 214.108397,42.1634957 C214.079294,42.3264491 214.10124,42.6747503 214.183302,42.875345 C214.324046,43.2160226 214.613168,43.3789761 214.983874,43.3789761 C215.406584,43.3789761 215.725286,43.2474698 215.948092,43.123587 L216.036832,43.6033945 Z" id="Fill-85" fill="#FEFEFE" mask="url(#mask-4)"></path>
                <path d="M220.308492,38.9674159 C219.930153,38.9674159 219.618607,39.3543113 219.618607,39.8655659 C219.618607,40.1595492 219.692557,40.4225618 219.856202,40.6931979 C220.45687,40.3911146 220.812786,40.0509135 220.812786,39.5553825 C220.812786,39.2542521 220.678721,38.9674159 220.315649,38.9674159 L220.308492,38.9674159 Z M219.596183,43.3943185 C219.989313,43.3943185 220.322805,43.2084943 220.575668,42.9297581 C220.338073,42.5662099 219.907729,41.931549 219.537023,41.2811646 C219.210687,41.4903358 218.699237,41.8619841 218.699237,42.4961685 C218.699237,42.9997996 219.017939,43.3943185 219.589027,43.3943185 L219.596183,43.3943185 Z M221.175859,43.8121845 C221.049905,43.6573311 220.953531,43.5182012 220.83521,43.3323771 C220.419179,43.726896 219.974523,43.8974731 219.425382,43.8974731 C218.565649,43.8974731 218.076145,43.31713 218.076145,42.5971806 C218.076145,41.7766956 218.699237,41.2273232 219.314695,40.9099928 L219.314695,40.8866456 C219.136737,40.5540681 219.040363,40.2519848 219.040363,39.9427543 C219.040363,39.1608636 219.596183,38.5109556 220.367653,38.5109556 C221.034637,38.5109556 221.37624,38.982663 221.37624,39.5401354 C221.37624,40.1595492 220.953531,40.6393566 220.093321,41.0572227 L220.093321,41.0805698 C220.367653,41.5680008 220.731202,42.1402438 220.990744,42.5276157 C221.294656,42.1330967 221.531775,41.6218421 221.746947,40.9638341 L222.325668,40.9638341 C222.050859,41.8000427 221.732156,42.4504272 221.272233,42.9454817 C221.457824,43.2161179 221.657729,43.5029541 221.902958,43.8121845 L221.175859,43.8121845 Z" id="Fill-86" fill="#FEFEFE" mask="url(#mask-4)"></path>
                <path d="M223.912357,43.170043 C224.075525,43.2782022 224.386594,43.4016085 224.683349,43.4016085 C225.098426,43.4016085 225.365601,43.1233488 225.365601,42.7907712 C225.365601,42.4963114 225.239647,42.3104873 224.861307,42.094169 C224.446231,41.854027 224.216269,41.529073 224.216269,41.1421776 C224.216269,40.4841696 224.757777,39.9814915 225.521613,39.9814915 C225.840315,39.9814915 226.129914,40.0744036 226.263025,40.1668392 L226.092223,40.6547466 C225.966746,40.5775582 225.743941,40.4841696 225.476765,40.4841696 C225.098426,40.4841696 224.831727,40.7319351 224.831727,41.0492656 C224.831727,41.3199017 225.002529,41.4904788 225.328865,41.6758264 C225.729151,41.9159684 225.995849,42.2413989 225.995849,42.666412 C225.995849,43.4564028 225.388025,43.8971395 224.624189,43.8971395 C224.238693,43.889516 223.897567,43.7737332 223.734399,43.6417505 L223.912357,43.170043 Z" id="Fill-87" fill="#FEFEFE" mask="url(#mask-4)"></path>
                <path d="M227.330821,43.1853854 C227.493989,43.3168918 227.72395,43.3945567 228.020229,43.3945567 C228.814122,43.3945567 229.47395,42.3649004 229.47395,41.3819384 C229.47395,40.9874195 229.310782,40.5152356 228.784542,40.5152356 C228.302195,40.5152356 227.701527,41.0879551 227.516412,42.1404821 L227.330821,43.1853854 Z M226.322233,45.3442807 L227.041221,41.397662 C227.122805,40.9488252 227.19771,40.4375706 227.24208,40.0587753 L227.805534,40.0587753 L227.70916,40.7706247 L227.72395,40.7706247 C228.042653,40.2755701 228.517366,39.9811103 229.014027,39.9811103 C229.785973,39.9811103 230.111832,40.6467419 230.111832,41.3357206 C230.111832,42.6593602 229.207252,43.8972348 228.01355,43.8972348 C227.63521,43.8972348 227.382824,43.8124228 227.24208,43.7271343 L227.226813,43.7271343 L226.938168,45.3442807 L226.322233,45.3442807 Z" id="Fill-88" fill="#FEFEFE" mask="url(#mask-4)"></path>
                <path d="M230.54938,43.8121845 L230.98688,41.3979002 C231.076097,40.9099928 231.127624,40.4144618 231.164838,40.0666371 L231.706345,40.0666371 C231.683922,40.3291732 231.654342,40.5850388 231.609971,40.8790221 L231.632395,40.8790221 C231.869513,40.368244 232.247853,39.9813486 232.729246,39.9813486 C232.788884,39.9813486 232.855677,39.9894486 232.907204,39.9965957 L232.788884,40.6312566 C232.744513,40.623633 232.685353,40.6160095 232.618559,40.6160095 C232.091842,40.6160095 231.617128,41.2892646 231.461594,42.1559674 L231.164838,43.8121845 L230.54938,43.8121845 Z" id="Fill-89" fill="#FEFEFE" mask="url(#mask-4)"></path>
                <path d="M234.049809,39.3778013 C233.834637,39.3778013 233.68626,39.1996007 233.68626,38.9599353 C233.693893,38.7045462 233.879485,38.5029985 234.108969,38.5029985 C234.338931,38.5029985 234.494943,38.6811991 234.494943,38.9208646 C234.487309,39.1915007 234.301718,39.3778013 234.057443,39.3778013 L234.049809,39.3778013 Z M232.900477,43.8123275 L233.582729,40.0663036 L234.19771,40.0663036 L233.515935,43.8123275 L232.900477,43.8123275 Z" id="Fill-90" fill="#FEFEFE" mask="url(#mask-4)"></path>
                <path d="M234.60563,43.8121845 L235.080344,41.1577583 C235.161927,40.7398922 235.213931,40.3758675 235.251145,40.0666371 L235.807443,40.0666371 L235.710592,40.8018336 L235.725859,40.8018336 C236.051718,40.2753319 236.534065,39.9813486 237.060305,39.9813486 C237.483015,39.9813486 237.965363,40.2367376 237.965363,41.0186284 C237.965363,41.188729 237.935305,41.4283945 237.898569,41.6218421 L237.497805,43.8121845 L236.889981,43.8121845 L237.282634,41.6451893 C237.305057,41.5060594 237.327481,41.3278588 237.327481,41.1653818 C237.327481,40.7937336 237.186737,40.5154738 236.76355,40.5154738 C236.32605,40.5154738 235.703435,41.0648462 235.540267,41.9934904 L235.213931,43.8121845 L234.60563,43.8121845 Z" id="Fill-91" fill="#FEFEFE" mask="url(#mask-4)"></path>
                <path d="M238.558492,43.8121845 L239.559924,38.3175079 L240.175382,38.3175079 L239.544656,41.760972 L239.559924,41.760972 C239.663454,41.6299422 239.797042,41.4903358 239.893416,41.3898002 L241.153912,40.0666371 L241.917748,40.0666371 L240.35334,41.606595 L241.421088,43.8121845 L240.746469,43.8121845 L239.878626,41.9706197 L239.425859,42.3884858 L239.166317,43.8121845 L238.558492,43.8121845 Z" id="Fill-92" fill="#FEFEFE" mask="url(#mask-4)"></path>
                <path d="M241.998378,43.8121845 L242.999332,38.3175079 L243.615267,38.3175079 L242.613836,43.8121845 L241.998378,43.8121845 Z" id="Fill-93" fill="#FEFEFE" mask="url(#mask-4)"></path>
                <path d="M246.143607,40.9565917 C246.143607,40.6545084 245.921279,40.4844079 245.594943,40.4844079 C245.009065,40.4844079 244.571565,41.0804745 244.423187,41.6684411 C245.387405,41.6836882 246.143607,41.5445584 246.143607,40.9642153 L246.143607,40.9565917 Z M246.277195,43.6033945 C246.010496,43.7582479 245.572519,43.8973778 245.090649,43.8973778 C244.141221,43.8973778 243.726145,43.2160226 243.726145,42.3883905 C243.726145,41.2581986 244.526718,39.9812533 245.683683,39.9812533 C246.366412,39.9812533 246.736641,40.4072194 246.736641,40.9484917 C246.736641,41.9314537 245.676527,42.1868428 244.34876,42.1634957 C244.319179,42.3264491 244.341603,42.6747503 244.423187,42.875345 C244.564408,43.2160226 244.853531,43.3789761 245.22376,43.3789761 C245.646947,43.3789761 245.965649,43.2474698 246.188454,43.123587 L246.277195,43.6033945 Z" id="Fill-94" fill="#FEFEFE" mask="url(#mask-4)"></path>
                <path d="M247.048426,43.8121845 L247.485926,41.3979002 C247.575143,40.9099928 247.62667,40.4144618 247.663884,40.0666371 L248.205391,40.0666371 C248.182968,40.3291732 248.15291,40.5850388 248.109017,40.8790221 L248.130964,40.8790221 C248.368559,40.368244 248.746899,39.9813486 249.228292,39.9813486 C249.287929,39.9813486 249.354723,39.9894486 249.40625,39.9965957 L249.287929,40.6312566 C249.243559,40.623633 249.184399,40.6160095 249.117128,40.6160095 C248.59041,40.6160095 248.116174,41.2892646 247.960162,42.1559674 L247.663884,43.8121845 L247.048426,43.8121845 Z" id="Fill-95" fill="#FEFEFE" mask="url(#mask-4)"></path>
            </g>
        </g>
    </g>
</svg>